<?xml version="1.0" encoding="UTF-8"?>
<svg version="1.1" xmlns="http://www.w3.org/2000/svg" width="128" height="128">
<path d="M0 0 C40.26 0 80.52 0 122 0 C120.06894958 9.65525208 114.69319468 16.1031858 107 22 C107.350625 22.7425 107.70125 23.485 108.0625 24.25 C109.0948283 27.27816301 109.10565549 28.08659779 108 31 C104.57637462 35.12371835 100.92605838 38.27979595 95.5 38.9375 C94.345 38.958125 93.19 38.97875 92 39 C92 39.66 92 40.32 92 41 C92.59425781 40.96519531 93.18851562 40.93039063 93.80078125 40.89453125 C100.56171008 40.67372331 106.65042308 41.59686151 113 44 C115 46 115 46 115.3515625 47.9375 C116.26495645 50.84275305 117.79692245 51.46483408 120.375 53 C123.68235694 54.98225953 126.01803696 56.64446131 128 60 C128.3984375 62.18359375 128.3984375 62.18359375 128.375 64.4375 C128.38273438 65.17871094 128.39046875 65.91992188 128.3984375 66.68359375 C127.89323668 69.62069263 126.56667819 71.47506233 125 74 C124.26083909 76.00976233 123.5544278 78.03176581 122.875 80.0625 C118.92415613 90.53876166 111.22611392 102.12217853 100.74609375 107.0625 C99.21533705 107.68412709 97.68279146 108.30136826 96.1484375 108.9140625 C93.09526442 110.45730271 91.19206841 112.69075077 88.8984375 115.18359375 C85.47492463 118.45917705 79.90950734 123 75 123 C75.33 124.65 75.66 126.3 76 128 C50.92 128 25.84 128 0 128 C0 85.76 0 43.52 0 0 Z " fill="#181021" transform="translate(0,0)"/>
<path d="M0 0 C1.74965358 -0.05429959 3.49979787 -0.09292823 5.25 -0.125 C6.22453125 -0.14820313 7.1990625 -0.17140625 8.203125 -0.1953125 C11.11800587 0.00824063 12.71643705 0.16566255 15 2 C15.43359375 4.50390625 15.43359375 4.50390625 15.4375 7.5625 C15.83874974 15.34487864 18.49397586 20.19563965 23.625 25.9375 C27.88383425 29.63596132 30.18827087 30.36762115 35.63671875 30.26953125 C39.18716705 29.86460409 41.82953285 28.61896195 45 27 C44.54991464 35.55162188 38.79589459 42.88189974 32.7265625 48.5234375 C30.19249427 50.69058182 27.97496051 52.44784669 25 54 C22.125 53.75 22.125 53.75 20 53 C19.67 51.35 19.34 49.7 19 48 C21.31 46.02 23.62 44.04 26 42 C22.90516596 42.97423911 22.90516596 42.97423911 19.6875 44.5 C5.84702789 50.13002255 -13.07473806 47.76529963 -27.5625 45.6875 C-28.38693604 45.56987305 -29.21137207 45.45224609 -30.06079102 45.33105469 C-45.32396502 42.88293612 -45.32396502 42.88293612 -50.0625 37.125 C-50.63097656 36.46757813 -51.19945313 35.81015625 -51.78515625 35.1328125 C-53.27020741 32.52561657 -53.29979022 30.95983356 -53 28 C-52.67 27.01 -52.34 26.02 -52 25 C-54.31 24.67 -56.62 24.34 -59 24 C-59.56033677 29.60336774 -58.03236007 33.40868366 -55 38 C-46.4280712 47.1991431 -32.69391282 48.51743884 -20.72006226 49.11349487 C-14.24495693 49.31773528 -7.76393712 49.36583636 -1.28588867 49.38085938 C1.15757874 49.39034949 3.59978407 49.4239996 6.04296875 49.4609375 C7.15541206 49.45336929 7.15541206 49.45336929 8.29032898 49.44564819 C11.77367908 49.5124071 13.67748927 49.75743106 16.49682617 51.87792969 C18 54 18 54 18.0078125 56.4921875 C16.78121509 59.54441826 15.35814543 60.97855225 12.875 63.125 C12.12992187 63.78757813 11.38484375 64.45015625 10.6171875 65.1328125 C2.72091646 70.76627154 -5.6815973 71.42641445 -15 70 C-32.60650836 65.97376377 -50.64257339 58.70879839 -62 44 C-67.05851037 35.51199108 -70.80308018 27.0478097 -69 17 C-66.24362235 13.1607597 -62.28584964 10.86230371 -58 9 C-54.75 8.875 -54.75 8.875 -52 9 C-51.92523438 9.61488281 -51.85046875 10.22976562 -51.7734375 10.86328125 C-50.99193464 16.16972334 -50.99193464 16.16972334 -47.4375 19.9375 C-39.31781006 22.44722234 -31.75306664 23.38812735 -23.25 23.4375 C-22.23550781 23.47037109 -21.22101562 23.50324219 -20.17578125 23.53710938 C-15.65066802 23.56981387 -12.8763298 23.57498319 -9.03515625 21.0546875 C-6.40966155 17.11392577 -4.77634242 13.13134844 -3.1875 8.6875 C-2.87619141 7.85154297 -2.56488281 7.01558594 -2.24414062 6.15429688 C-1.48385331 4.10736948 -0.74021966 2.05426956 0 0 Z " fill="#D8D1D3" transform="translate(73,49)"/>
<path d="M0 0 C9.06367041 0 9.06367041 0 12.4375 1.8125 C13.09621094 2.14894531 13.75492188 2.48539062 14.43359375 2.83203125 C16 4 16 4 17 7 C17.99 7 18.98 7 20 7 C20.28875 7.639375 20.5775 8.27875 20.875 8.9375 C21.82823451 11.15206079 21.82823451 11.15206079 24 12 C22.94915771 15.31419492 21.7990874 18.44818965 20.375 21.625 C18.74846874 25.01000408 18.74846874 25.01000408 19 29 C19.3403125 28.49210937 19.680625 27.98421875 20.03125 27.4609375 C23.93764576 21.91302438 28.31755201 16.0495142 35.265625 14.4921875 C40.89045738 14.20520626 44.40809393 15.87359587 49 19 C49 18.34 49 17.68 49 17 C51.99457529 18.08997951 54.75750457 19.37730646 57.5234375 20.9453125 C58.1525 21.29980469 58.7815625 21.65429688 59.4296875 22.01953125 C60.7240461 22.75508041 62.01319534 23.4998749 63.296875 24.25390625 C67.68440252 26.69838587 70.85435182 27.5164777 76 27 C76.680625 26.608125 77.36125 26.21625 78.0625 25.8125 C80 25 80 25 83.1875 26.25 C86 28 86 28 87 30 C87.13415472 32.6723621 87.04318541 35.32250488 87 38 C82.71 37.67 78.42 37.34 74 37 C74 36.34 74 35.68 74 35 C72.98292969 34.81824219 72.98292969 34.81824219 71.9453125 34.6328125 C66.47429597 33.64772642 61.02041676 32.61728621 55.58203125 31.46484375 C47.82671773 30.06865266 40.36752689 29.87632904 32.5 29.9375 C30.83710937 29.94426758 30.83710937 29.94426758 29.140625 29.95117188 C26.42702601 29.96286842 23.71354239 29.97925914 21 30 C21 30.763125 21 31.52625 21 32.3125 C21 38 21 38 19.50390625 39.71875 C18.54291016 40.60046875 18.54291016 40.60046875 17.5625 41.5 C15.07860209 43.78819687 14.09119869 44.72640392 13 48 C13.53625 47.67 14.0725 47.34 14.625 47 C17.53741558 45.77371976 19.86764377 45.93134562 23 46 C23.06316406 47.04800781 23.12632813 48.09601562 23.19140625 49.17578125 C23.51770577 53.22179693 24.030294 57.0512873 25 61 C27.93434512 63.31001637 28.55854877 63.56746788 32 64 C32.73863281 64.18175781 33.47726563 64.36351563 34.23828125 64.55078125 C43.30382656 66.62330872 52.74312732 66.63548066 62 67 C61.67 67.66 61.34 68.32 61 69 C31.39322672 69.73377234 31.39322672 69.73377234 22.75 63.75 C20.54953149 60.29212092 20.6055315 58.0235787 21 54 C14.49739641 55.34536626 9.81356706 57.18643294 5 62 C3.51668896 70.57197644 5.99730643 78.47156934 10 86 C17.07070904 95.97972122 27.30127376 102.7749044 38.1875 108.0625 C40 109 40 109 41.6953125 110.3984375 C48.25593616 114.95751496 57.2491353 117.26837482 65.1328125 118.25 C67 119 67 119 71 124 C47.57 124 24.14 124 0 124 C0 83.08 0 42.16 0 0 Z " fill="#897F90" transform="translate(0,4)"/>
<path d="M0 0 C35.97 0 71.94 0 109 0 C107.73255646 7.60466123 104.72718057 12.09353966 98.640625 16.83984375 C96.46100819 18.29648309 94.25630739 19.66632993 92 21 C91.01 21.66 90.02 22.32 89 23 C90.98 24.32 92.96 25.64 95 27 C94.75 29.375 94.75 29.375 94 32 C90.89169087 34.41757377 87.82082001 34.24918391 84 34 C83.34 33.67 82.68 33.34 82 33 C82.33 32.01 82.66 31.02 83 30 C81.948125 29.7525 80.89625 29.505 79.8125 29.25 C76.1779442 28.21787462 73.77322631 26.61009535 71 24 C70.505 23.01 70.505 23.01 70 22 C69.67 23.32 69.34 24.64 69 26 C61.42473789 26 56.72521603 21.5514623 51 17 C50.0821875 16.31808594 49.164375 15.63617188 48.21875 14.93359375 C46 13 46 13 45.125 9.875 C45 7 45 7 46 5 C44.77925781 5.28875 43.55851562 5.5775 42.30078125 5.875 C18.6759532 11.28912336 18.6759532 11.28912336 11.3828125 7.71875 C9 6.125 9 6.125 7 4.5078125 C4.77561794 2.83083696 2.61281857 1.93444553 0 1 C0 0.67 0 0.34 0 0 Z " fill="#B4A9BB" transform="translate(7,0)"/>
<path d="M0 0 C1.04800781 -0.01224609 2.09601562 -0.02449219 3.17578125 -0.03710938 C10.20463034 -0.05014185 16.76050852 0.68018133 23.625 2.1875 C23.295 3.1775 22.965 4.1675 22.625 5.1875 C23.594375 5.290625 24.56375 5.39375 25.5625 5.5 C30.11093839 6.13379879 34.31917104 7.63505827 38.625 9.1875 C38.38036592 29.60332622 38.38036592 29.60332622 32.625 37.1875 C23.25813591 41.87093204 5.25362398 38.26612583 -4.375 35.1875 C-6.734375 34.0625 -6.734375 34.0625 -8.375 32.1875 C-8.83281902 29.50221536 -9.06972304 27.19098286 -9.125 24.5 C-9.15464844 23.79810547 -9.18429688 23.09621094 -9.21484375 22.37304688 C-9.28537033 20.64514576 -9.33247068 18.9163168 -9.375 17.1875 C-12.675 17.8475 -15.975 18.5075 -19.375 19.1875 C-18.31345892 14.94133568 -17.8914161 14.49701862 -14.75 11.875 C-12.80891514 10.14303409 -12.80891514 10.14303409 -11.375 8.1875 C-11.34321161 4.39415415 -11.34321161 4.39415415 -12.375 1.1875 C-9.90388546 -1.28361454 -3.31479032 0.00196607 0 0 Z " fill="#17121D" transform="translate(32.375,32.8125)"/>
<path d="M0 0 C2 1 2 1 2.640625 2.75 C2.84171875 3.4925 3.0428125 4.235 3.25 5 C5.23272714 11.26862218 8.38237098 16.6653579 13.3125 21.0625 C18.6818433 22.93552673 23.8348259 22.7267983 29.0625 20.5 C30.031875 20.005 31.00125 19.51 32 19 C31.54991464 27.55162188 25.79589459 34.88189974 19.7265625 40.5234375 C17.19249427 42.69058182 14.97496051 44.44784669 12 46 C9.125 45.75 9.125 45.75 7 45 C6.505 42.525 6.505 42.525 6 40 C8.31 38.02 10.62 36.04 13 34 C10.13616381 34.82618495 10.13616381 34.82618495 8.32421875 36.0390625 C4.88648217 37.4603788 1.47607281 37.38256525 -2.1875 37.375 C-2.94619385 37.37411377 -3.7048877 37.37322754 -4.48657227 37.37231445 C-10.20301048 37.25167832 -15.29171372 36.51066733 -20 33 C-22.7215794 28.9176309 -22.85107559 25.70055594 -22 21 C-18.05097755 10.55495247 -12.61495377 -0.52562307 0 0 Z " fill="#F5E9EC" transform="translate(86,57)"/>
<path d="M0 0 C1.65 1.65 3.3 3.3 5 5 C11.39247056 11.13728211 17.72504379 14.89689142 26 18 C26.33 17.34 26.66 16.68 27 16 C27.60328125 16.33773437 28.2065625 16.67546875 28.828125 17.0234375 C29.62734375 17.46945313 30.4265625 17.91546875 31.25 18.375 C32.43335937 19.03628906 32.43335937 19.03628906 33.640625 19.7109375 C35.08994926 20.50278685 36.55629592 21.26540836 38.046875 21.9765625 C40 23 40 23 41.83203125 24.46484375 C48.28091312 29.03134929 57.34190736 31.27992621 65.1328125 32.25 C67 33 67 33 71 38 C47.57 38 24.14 38 0 38 C0 25.46 0 12.92 0 0 Z " fill="#776B81" transform="translate(0,90)"/>
<path d="M0 0 C7.21184555 -0.60098713 12.16013078 1.62243508 17.6875 6.25 C25.78919884 10.53014278 35.59697318 7.95834866 44.02734375 5.65625 C47.10931253 4.97586793 49.85433375 4.88748735 53 5 C52.896875 5.886875 52.79375 6.77375 52.6875 7.6875 C53.01707135 11.18095635 53.58346085 12.29695709 56.1796875 14.57421875 C56.78039063 15.04472656 57.38109375 15.51523438 58 16 C58.84820312 16.66644531 59.69640625 17.33289063 60.5703125 18.01953125 C65.2903706 21.58851251 69.25906466 24.35127777 75 26 C74.505 27.485 74.505 27.485 74 29 C66.36365822 28.87057048 61.19415985 26.25789175 54.72265625 22.49609375 C52.22563787 20.83947305 52.22563787 20.83947305 50 21 C49.67 21.66 49.34 22.32 49 23 C48.401875 22.690625 47.80375 22.38125 47.1875 22.0625 C42.46577797 19.76909216 38.16657265 19.13610879 33 20 C27.33182816 22.78274378 23.64594402 27.3435038 20.12890625 32.4609375 C19.75636719 32.96882813 19.38382813 33.47671875 19 34 C18.67 34 18.34 34 18 34 C18.38669459 27.03949747 20.63438409 22.0605925 24 16 C22.68 15.34 21.36 14.68 20 14 C20 13.01 20 12.02 20 11 C19.01 11 18.02 11 17 11 C15.66666667 9.66666667 14.33333333 8.33333333 13 7 C8.8243199 4.79616884 4.6359259 4.47145009 0 4 C0 2.68 0 1.36 0 0 Z " fill="#6D5A7E" transform="translate(0,0)"/>
<path d="M0 0 C1.65 1.65 3.3 3.3 5 5 C11.39247056 11.13728211 17.72504379 14.89689142 26 18 C26 18.33 26 18.66 26 19 C22.04 19 18.08 19 14 19 C14.7669334 21.04313484 15.53873202 23.08444372 16.3125 25.125 C16.74175781 26.26195313 17.17101562 27.39890625 17.61328125 28.5703125 C18.91276508 31.78424716 20.449643 34.89928599 22 38 C14.74 38 7.48 38 0 38 C0 25.46 0 12.92 0 0 Z " fill="#7239A7" transform="translate(0,90)"/>
<path d="M0 0 C1.98 0 3.96 0 6 0 C4.52133767 9.55181871 -1.55096889 16.29033656 -9 22 C-8.649375 22.7425 -8.29875 23.485 -7.9375 24.25 C-6.9051717 27.27816301 -6.89434451 28.08659779 -8 31 C-11.42362538 35.12371835 -15.07394162 38.27979595 -20.5 38.9375 C-21.655 38.958125 -22.81 38.97875 -24 39 C-24 39.66 -24 40.32 -24 41 C-23.40574219 40.96519531 -22.81148437 40.93039063 -22.19921875 40.89453125 C-15.47702085 40.67498824 -9.29080647 41.51107838 -3 44 C-2.67 44.66 -2.34 45.32 -2 46 C-3.299375 45.855625 -4.59875 45.71125 -5.9375 45.5625 C-13.60669248 44.78783409 -21.3049214 44.41956925 -29 44 C-28.9896875 42.90558594 -28.979375 41.81117187 -28.96875 40.68359375 C-28.99503889 37.58479113 -29.27449683 34.99270059 -30 32 C-30.5775 31.855625 -31.155 31.71125 -31.75 31.5625 C-33.221405 31.19464875 -34.68195403 30.77936781 -36.125 30.3125 C-36.74375 30.209375 -37.3625 30.10625 -38 30 C-38.66 30.66 -39.32 31.32 -40 32 C-46.37420451 32.81803641 -50.42839887 30.69942128 -55.8125 27.6875 C-56.57498047 27.28337891 -57.33746094 26.87925781 -58.12304688 26.46289062 C-63.72057039 23.41914442 -63.72057039 23.41914442 -66 20 C-60.93168 21.94427173 -56.11862317 24.35704311 -51.25390625 26.7578125 C-47.90344243 28.03686111 -45.54918788 28.24624833 -42 28 C-41.01 24.535 -41.01 24.535 -40 21 C-38.85373678 21.97866338 -37.70800212 22.95794587 -36.5625 23.9375 C-35.92441406 24.48277344 -35.28632812 25.02804688 -34.62890625 25.58984375 C-33.73008851 26.36795695 -32.84063472 27.15936528 -32 28 C-29.67182036 28.36760731 -27.3381615 28.70241581 -25 29 C-25.66 30.32 -26.32 31.64 -27 33 C-20.68731397 33.37552165 -20.68731397 33.37552165 -15 31 C-15.11341534 28.59122743 -15.11341534 28.59122743 -16 26 C-18.46115547 24.15565651 -18.46115547 24.15565651 -21 23 C-19.58604684 20.17209369 -17.70798577 19.79223843 -14.875 18.4375 C-7.80753327 14.67860027 -3.55373242 9.85055426 -0.5625 2.4375 C-0.2840625 1.2309375 -0.2840625 1.2309375 0 0 Z " fill="#170D22" transform="translate(116,0)"/>
<path d="M0 0 C7.02952752 0.4535179 12.5849443 2.12059087 19 5 C18.64134677 12.41216681 16.64079463 17.56479472 13 24 C9.85424793 24.05896868 6.7086414 24.09391603 3.5625 24.125 C2.24475586 24.15013672 2.24475586 24.15013672 0.90039062 24.17578125 C-4.8775289 24.21842272 -10.49991603 23.92798803 -16 22 C-18 20 -18 20 -18.1953125 17.3984375 C-18.17210938 16.40070312 -18.14890625 15.40296875 -18.125 14.375 C-18.10695313 13.37210938 -18.08890625 12.36921875 -18.0703125 11.3359375 C-18.04710938 10.56507812 -18.02390625 9.79421875 -18 9 C-12.48403004 8.52035044 -8.7679111 9.66536137 -3.7109375 11.84375 C-0.79826158 13.08604405 2.14579501 14.17779255 5.125 15.25 C6.05570313 15.58515625 6.98640625 15.9203125 7.9453125 16.265625 C8.62335937 16.50796875 9.30140625 16.7503125 10 17 C7.65146875 10.13399981 5.02784222 5.2563805 0 0 Z " fill="#D4CDD0" transform="translate(48,40)"/>
<path d="M0 0 C1.11503906 0.00966797 2.23007813 0.01933594 3.37890625 0.02929688 C5.11720703 0.06700195 5.11720703 0.06700195 6.890625 0.10546875 C8.06496094 0.11900391 9.23929688 0.13253906 10.44921875 0.14648438 C13.34681798 0.18182095 16.24348927 0.23115896 19.140625 0.29296875 C15.04020091 8.84730177 9.87734626 12.62472631 1.453125 16.54296875 C-7.35740113 18.53780485 -16.97839439 18.08365865 -24.859375 13.29296875 C-25.66015625 11.15234375 -25.66015625 11.15234375 -25.859375 9.29296875 C-21.29267411 7.25252793 -16.76679891 5.56729773 -11.97265625 4.13671875 C-9.78354389 3.3971471 -9.78354389 3.3971471 -8.09350586 1.75854492 C-5.2176645 -0.12798941 -3.41823406 -0.05231991 0 0 Z " fill="#DBD1E2" transform="translate(93.859375,-0.29296875)"/>
<path d="M0 0 C11.63848624 3.96837873 11.63848624 3.96837873 14.2734375 9.23828125 C14.68370767 12.9307128 14.55732719 14.75785254 12.6484375 17.98828125 C9.90131182 20.59082137 7.96271272 21.46968225 4.2734375 22.23828125 C1.1580592 21.88223802 -0.02229421 21.04112678 -2.7265625 19.23828125 C-3.3865625 18.90828125 -4.0465625 18.57828125 -4.7265625 18.23828125 C-5.0565625 18.56828125 -5.3865625 18.89828125 -5.7265625 19.23828125 C-10.21407546 14.98695318 -12.76657944 12.39747783 -13.0390625 6.17578125 C-12.7265625 2.23828125 -12.7265625 2.23828125 -11.6640625 0.23828125 C-7.66254229 -1.82701951 -4.16095107 -1.16244335 0 0 Z " fill="#2D2B31" transform="translate(108.7265625,51.76171875)"/>
<path d="M0 0 C7.19744382 1.95336196 14.19850413 4.8110392 20.97875977 7.90209961 C24.16387299 9.3477195 26.55580142 10.3469871 30.0625 9.9375 C34.70510827 10.01119219 36.47869787 11.06558156 40 14 C40.66 14.99 41.32 15.98 42 17 C37.71 16.67 33.42 16.34 29 16 C29 15.34 29 14.68 29 14 C28.32195312 13.87882812 27.64390625 13.75765625 26.9453125 13.6328125 C21.47429597 12.64772642 16.02041676 11.61728621 10.58203125 10.46484375 C3.74299066 9.23360951 -3.06983699 8.76218506 -10 8.4375 C-10.87011719 8.39431641 -11.74023438 8.35113281 -12.63671875 8.30664062 C-14.75768219 8.20175782 -16.87882433 8.10049925 -19 8 C-15.64824176 -1.53961961 -9.37059459 -1.56558766 0 0 Z " fill="#D7D0D3" transform="translate(45,25)"/>
<path d="M0 0 C2.61918417 1.09053305 4.63616293 2.39057902 7 4 C7 3.34 7 2.68 7 2 C9.99457529 3.08997951 12.75750457 4.37730646 15.5234375 5.9453125 C16.1525 6.29980469 16.7815625 6.65429688 17.4296875 7.01953125 C18.7240461 7.75508041 20.01319534 8.4998749 21.296875 9.25390625 C25.68440252 11.69838587 28.85435182 12.5164777 34 12 C34.680625 11.608125 35.36125 11.21625 36.0625 10.8125 C38 10 38 10 41.1875 11.25 C44 13 44 13 45 15 C45.04022391 17.3329866 45.04320247 19.66706666 45 22 C44.5153125 21.6390625 44.030625 21.278125 43.53125 20.90625 C42.8609375 20.4421875 42.190625 19.978125 41.5 19.5 C40.52546875 18.80390625 40.52546875 18.80390625 39.53125 18.09375 C36.6139531 16.83318961 34.38351371 17.05274187 31.25683594 17.15332031 C26.83298408 16.8527817 22.90160297 14.86966006 18.875 13.125 C7.77314208 8.30044347 7.77314208 8.30044347 -4.125 6.5625 C-5.92324219 6.50255859 -5.92324219 6.50255859 -7.7578125 6.44140625 C-11.16909187 6.70486703 -11.16909187 6.70486703 -13.3671875 9.40234375 C-14.96963797 11.85814151 -14.96963797 11.85814151 -16 14 C-18.32156597 14.40729228 -20.6568787 14.74438677 -23 15 C-18.21997567 5.24078366 -11.25155667 -1.41102584 0 0 Z " fill="#897F8F" transform="translate(42,19)"/>
<path d="M0 0 C9.07692308 0 9.07692308 0 12.375 1.75 C13.02210937 2.07484375 13.66921875 2.3996875 14.3359375 2.734375 C16.37419335 4.28459776 17.08525394 5.62439084 18 8 C18.1875 10.875 18.1875 10.875 17 14 C9.99090909 20 9.99090909 20 6 20 C4.47700477 22.93720508 3.19899698 25.9168649 2 29 C1.34 29 0.68 29 0 29 C0 19.43 0 9.86 0 0 Z " fill="#F6EAED" transform="translate(0,4)"/>
<path d="M0 0 C0.495 0.99 0.495 0.99 1 2 C-3.55202643 8.58653342 -8.12164068 12.93430311 -15 17 C-15.99 17.66 -16.98 18.32 -18 19 C-16.02 20.32 -14.04 21.64 -12 23 C-12.25 25.375 -12.25 25.375 -13 28 C-16.10830913 30.41757377 -19.17917999 30.24918391 -23 30 C-23.66 29.67 -24.32 29.34 -25 29 C-24.67 28.01 -24.34 27.02 -24 26 C-25.051875 25.7525 -26.10375 25.505 -27.1875 25.25 C-30.8220558 24.21787462 -33.22677369 22.61009535 -36 20 C-36.33 19.34 -36.66 18.68 -37 18 C-37.66 19.32 -38.32 20.64 -39 22 C-39.33 19.03 -39.66 16.06 -40 13 C-39.29875 13.15726563 -38.5975 13.31453125 -37.875 13.4765625 C-27.22708314 15.4151778 -18.70988527 13.5066978 -9 9 C-8.27425781 8.690625 -7.54851562 8.38125 -6.80078125 8.0625 C-4.64057814 6.7879333 -3.63508462 5.45262694 -2.25 3.375 C-1.82203125 2.74335937 -1.3940625 2.11171875 -0.953125 1.4609375 C-0.48132813 0.73777344 -0.48132813 0.73777344 0 0 Z " fill="#6A577C" transform="translate(114,4)"/>
<path d="M0 0 C0 1.32 0 2.64 0 4 C0.08241913 8.45063287 0.63799433 11.15254544 3.8125 14.25 C8.69226552 17.96415352 14.05867011 18.96043938 20 20 C21.08152344 20.20496094 22.16304687 20.40992187 23.27734375 20.62109375 C37.36804525 22.83949952 51.77926233 22.18053671 66 22 C63.03651571 23.9756562 62.31979627 24.26376859 58.98828125 24.4140625 C58.23095703 24.45273438 57.47363281 24.49140625 56.69335938 24.53125 C55.90767578 24.5621875 55.12199219 24.593125 54.3125 24.625 C53.51521484 24.66367188 52.71792969 24.70234375 51.89648438 24.7421875 C49.93136525 24.83632494 47.9657146 24.91924632 46 25 C46 25.33 46 25.66 46 26 C10.0688853 27.24217682 10.0688853 27.24217682 -1.85546875 16.296875 C-4.67213485 13.21928259 -7.04891158 10.12138315 -8 6 C-7.75 2.75 -7.75 2.75 -7 0 C-4.3333581 -1.33332095 -2.83319697 -0.67102033 0 0 Z " fill="#231A2C" transform="translate(21,73)"/>
<path d="M0 0 C3.80713675 -0.26031704 5.55655066 -0.00170196 8.4375 2.5 C16.3977304 8.87422624 25.8350069 13.60080331 35 18 C35 18.33 35 18.66 35 19 C30.60505939 19.2325602 26.21169714 19.37450074 21.8125 19.5 C19.94368164 19.60054687 19.94368164 19.60054687 18.03710938 19.703125 C9.01932243 19.89653598 9.01932243 19.89653598 6.0847168 17.31542969 C4.77533126 15.2432139 3.85750653 13.29201682 3 11 C2.68933594 10.3615918 2.37867188 9.72318359 2.05859375 9.06542969 C0.47768174 5.77068145 0 3.71567361 0 0 Z " fill="#BE7BF8" transform="translate(14,109)"/>
<path d="M0 0 C4.93639216 1.23409804 8.34294896 3.89403564 11.5 7.875 C12.2265625 10.61328125 12.2265625 10.61328125 12.5 12.875 C11.695625 12.545 10.89125 12.215 10.0625 11.875 C4.96887852 10.44521151 0.27013445 9.50254723 -4.64453125 11.9375 C-9.11262599 15.0813984 -12.29055008 18.85362055 -15.37109375 23.3359375 C-15.74363281 23.84382813 -16.11617187 24.35171875 -16.5 24.875 C-16.83 24.875 -17.16 24.875 -17.5 24.875 C-17.02512837 16.16902003 -13.92793258 9.8828972 -7.625 3.8125 C-4.90187612 1.6350208 -3.46278878 0.8656972 0 0 Z " fill="#18151C" transform="translate(35.5,9.125)"/>
<path d="M0 0 C1.4540625 0.0309375 1.4540625 0.0309375 2.9375 0.0625 C1.9475 1.5475 1.9475 1.5475 0.9375 3.0625 C0.12124172 9.94239118 1.85446178 13.57956296 5.9375 19.0625 C5.9375 18.4025 5.9375 17.7425 5.9375 17.0625 C6.5975 17.0625 7.2575 17.0625 7.9375 17.0625 C7.9375 17.7225 7.9375 18.3825 7.9375 19.0625 C8.865625 19.371875 9.79375 19.68125 10.75 20 C13.8125 21.02083333 16.875 22.04166667 19.9375 23.0625 C19.2775 23.0625 18.6175 23.0625 17.9375 23.0625 C18.2675 24.3825 18.5975 25.7025 18.9375 27.0625 C15.87503253 28.84659802 13.71670727 29.29130021 10.1875 29.1875 C9.38828125 29.16945313 8.5890625 29.15140625 7.765625 29.1328125 C7.16234375 29.10960938 6.5590625 29.08640625 5.9375 29.0625 C5.9375 28.7325 5.9375 28.4025 5.9375 28.0625 C8.5775 28.0625 11.2175 28.0625 13.9375 28.0625 C13.9375 27.4025 13.9375 26.7425 13.9375 26.0625 C12.638125 26.18625 12.638125 26.18625 11.3125 26.3125 C6.96759569 25.99065524 5.25103783 24.8825322 1.9375 22.0625 C-1.92810555 16.89796786 -4.20656634 12.47725611 -4.1875 5.9375 C-4.19007812 5.04804687 -4.19265625 4.15859375 -4.1953125 3.2421875 C-3.98520899 -0.20598179 -3.53284244 0.07209883 0 0 Z " fill="#211D27" transform="translate(96.0625,50.9375)"/>
<path d="M0 0 C3.35537627 1.34215051 5.45789202 2.45789202 8 5 C8.0625 6.9375 8.0625 6.9375 7 9 C3.11106583 11.25558182 0.87815854 11.98485934 -3.625 12.0625 C-8.21668045 10.61697097 -9.45492814 9.05620828 -12 5 C-11.9375 2.6875 -11.9375 2.6875 -11 1 C-7.54911896 -0.72544052 -3.78047152 -0.36851655 0 0 Z " fill="#F5E9EC" transform="translate(74,101)"/>
<path d="M0 0 C1.74965358 -0.05429959 3.49979787 -0.09292823 5.25 -0.125 C6.22453125 -0.14820313 7.1990625 -0.17140625 8.203125 -0.1953125 C11.0196498 0.00137219 12.60949036 0.55431084 15 2 C15 4.31 15 6.62 15 9 C13.845 8.87625 12.69 8.7525 11.5 8.625 C5.97957383 8.595688 3.05059122 11.60579456 -1 15 C-2.64821244 16.03013277 -4.30596166 17.04710343 -6 18 C-4.23536928 11.89262558 -2.30442525 5.92566493 0 0 Z " fill="#D2CBCE" transform="translate(73,49)"/>
<path d="M0 0 C4.0830942 -0.11614929 8.16576377 -0.18723457 12.25 -0.25 C13.40886719 -0.28351563 14.56773438 -0.31703125 15.76171875 -0.3515625 C16.87675781 -0.36445312 17.99179688 -0.37734375 19.140625 -0.390625 C20.16704102 -0.41157227 21.19345703 -0.43251953 22.25097656 -0.45410156 C25.71371113 0.11789544 26.88990422 1.24811232 29 4 C29.01031039 7.28901326 28.3103975 8.63631537 26.1796875 11.1328125 C25.41914062 11.79023437 24.65859375 12.44765625 23.875 13.125 C23.12992188 13.78757812 22.38484375 14.45015625 21.6171875 15.1328125 C15.81234852 19.27417523 10.74509363 20.47523694 3.8125 20.3125 C2.76545898 20.31733398 2.76545898 20.31733398 1.69726562 20.32226562 C-2.0168738 20.28339261 -4.84683302 20.04507729 -8 18 C-6.91203125 17.99742188 -5.8240625 17.99484375 -4.703125 17.9921875 C4.96679898 17.80026703 12.83560799 16.76816448 21 11 C23.22738107 8.31328252 23.22738107 8.31328252 22.875 5.9375 C21.71092835 3.35991277 20.5849003 3.05549146 18 2 C15.88185683 1.64088781 15.88185683 1.64088781 13.671875 1.5859375 C12.47304687 1.52792969 12.47304687 1.52792969 11.25 1.46875 C10.425 1.4378125 9.6 1.406875 8.75 1.375 C7.90953125 1.33632812 7.0690625 1.29765625 6.203125 1.2578125 C4.13576618 1.16384164 2.06791373 1.08084436 0 1 C0 0.67 0 0.34 0 0 Z " fill="#8C8392" transform="translate(62,99)"/>
<path d="M0 0 C7.11862082 0.49955234 11.17655652 2.2519 17 6.4375 C18 8 18 8 17.9375 10.5 C16.79429669 13.54854216 15.86678407 14.48697508 13 16 C10.5 16.5 10.5 16.5 8 16 C5.28340716 13.43025001 4.08413814 11.94655411 3.75 8.1875 C3.8325 7.465625 3.915 6.74375 4 6 C4.66 6 5.32 6 6 6 C6 5.01 6 4.02 6 3 C4.02 2.34 2.04 1.68 0 1 C0 0.67 0 0.34 0 0 Z " fill="#4F455B" transform="translate(103,54)"/>
<path d="M0 0 C6.15020271 -0.43930019 10.96618948 0.17146805 16 4 C17.55746679 6.51398177 17.99248213 7.88472597 18.1875 10.875 C16.36241041 15.67786734 12.45876661 17.69289508 8 20 C7.34 20 6.68 20 6 20 C4.47700477 22.93720508 3.19899698 25.9168649 2 29 C1.34 29 0.68 29 0 29 C-0.29231633 25.27296678 -0.45357092 22.788819 1.4375 19.5 C5.03510678 15.99013973 8.96648839 12.99065925 13 10 C12.70135653 8.04840693 12.70135653 8.04840693 12 6 C8.10158121 3.55215564 4.54692 2.5413 0 2 C0 1.34 0 0.68 0 0 Z " fill="#D5CDD1" transform="translate(0,4)"/>
<path d="M0 0 C7.79056257 -0.64921355 12.64158352 2.39028716 18.9375 6.6875 C23.1322568 9.40616942 27.07217647 9.87452301 32 10 C29.42215154 12.64752004 27.08351902 14.94432065 24 17 C22 15.6875 22 15.6875 20 14 C20 13.01 20 12.02 20 11 C19.01 11 18.02 11 17 11 C15.66666667 9.66666667 14.33333333 8.33333333 13 7 C8.8243199 4.79616884 4.6359259 4.47145009 0 4 C0 2.68 0 1.36 0 0 Z " fill="#625272" transform="translate(0,0)"/>
<path d="M0 0 C4.01895168 -0.30647119 5.83949229 0.19050079 8.9375 2.75 C12.19949231 5.36206974 15.49717082 7.72316103 19 10 C18.01 10.495 18.01 10.495 17 11 C14.6171875 10.00390625 14.6171875 10.00390625 11.875 8.5625 C10.96492188 8.08941406 10.05484375 7.61632812 9.1171875 7.12890625 C8.41851562 6.75636719 7.71984375 6.38382812 7 6 C9.17220877 10.44365551 11.37528381 14.8004541 14 19 C11.3125 19.5 11.3125 19.5 8 19 C5.81093985 16.610276 4.42858353 13.89262835 3 11 C2.67773438 10.35675781 2.35546875 9.71351562 2.0234375 9.05078125 C0.49173397 5.75117692 0 3.70317977 0 0 Z " fill="#9852D7" transform="translate(14,109)"/>
<path d="M0 0 C6.19240462 0.68804496 12.01955594 2.28048715 18 4 C18 4.66 18 5.32 18 6 C19.216875 5.979375 20.43375 5.95875 21.6875 5.9375 C24.91977322 5.93175884 27.84934741 6.21233685 31 7 C31 5.35 31 3.7 31 2 C31.33 2 31.66 2 32 2 C31.979375 2.94875 31.95875 3.8975 31.9375 4.875 C31.77448174 7.90666283 31.77448174 7.90666283 33 10 C31.86820313 9.98839844 30.73640625 9.97679687 29.5703125 9.96484375 C28.08854331 9.95546546 26.60677235 9.9463653 25.125 9.9375 C24.37863281 9.92912109 23.63226563 9.92074219 22.86328125 9.91210938 C18.80154422 9.79311916 18.80154422 9.79311916 15 11 C14.67 9.68 14.34 8.36 14 7 C9.05 5.68 4.1 4.36 -1 3 C-0.67 2.01 -0.34 1.02 0 0 Z " fill="#2D2834" transform="translate(56,35)"/>
<path d="M0 0 C7.02952752 0.4535179 12.5849443 2.12059087 19 5 C18.64134677 12.41216681 16.64079463 17.56479472 13 24 C12.34 24 11.68 24 11 24 C11.309375 23.071875 11.61875 22.14375 11.9375 21.1875 C13.3783156 16.22128454 13.64694036 11.13794694 14 6 C12.98679687 5.97873047 12.98679687 5.97873047 11.953125 5.95703125 C4.57632933 5.5626072 4.57632933 5.5626072 1.375 2.4375 C0.92125 1.633125 0.4675 0.82875 0 0 Z " fill="#8A8190" transform="translate(48,40)"/>
<path d="M0 0 C0.99 0 1.98 0 3 0 C3 4 3 4 0.75 6.5 C-0.1575 7.325 -1.065 8.15 -2 9 C-2.60328125 9.65613281 -3.2065625 10.31226563 -3.828125 10.98828125 C-6.25567838 13.2368244 -8.47385623 14.36979729 -11.5 15.6875 C-12.4384375 16.10386719 -13.376875 16.52023438 -14.34375 16.94921875 C-18.899024 18.75123155 -22.64009663 19.15949998 -27.5625 19.1875 C-28.69816406 19.20167969 -29.83382812 19.21585938 -31.00390625 19.23046875 C-34 19 -34 19 -37 17 C-35.96101563 16.97421875 -34.92203125 16.9484375 -33.8515625 16.921875 C-24.78901777 16.59339582 -16.35161011 16.08206757 -8.859375 10.3671875 C-7 9 -7 9 -5 9 C-4.731875 8.443125 -4.46375 7.88625 -4.1875 7.3125 C-2.88383449 4.77378296 -1.62991973 2.34708441 0 0 Z " fill="#AEA3B7" transform="translate(113,0)"/>
<path d="M0 0 C0.99 1.0209375 0.99 1.0209375 2 2.0625 C9.37152673 9.37173214 16.24957517 14.34359069 26 18 C26 18.33 26 18.66 26 19 C17.76502168 19.86683982 10.83367865 15.89885907 4.375 11.1875 C0.21880893 7.72617212 0.21880893 7.72617212 -0.625 4.92578125 C-0.625 3 -0.625 3 0 0 Z " fill="#20152C" transform="translate(0,90)"/>
<path d="M0 0 C0.33 0.66 0.66 1.32 1 2 C0.67 2.66 0.34 3.32 0 4 C0.99 4.33 1.98 4.66 3 5 C3 5.33 3 5.66 3 6 C1.35 6.33 -0.3 6.66 -2 7 C-2.08040527 7.65597168 -2.16081055 8.31194336 -2.24365234 8.98779297 C-2.61193256 11.95137173 -2.99329573 14.91312165 -3.375 17.875 C-3.50132813 18.90753906 -3.62765625 19.94007812 -3.7578125 21.00390625 C-3.88671875 21.99003906 -4.015625 22.97617187 -4.1484375 23.9921875 C-4.26364746 24.90339355 -4.37885742 25.81459961 -4.49755859 26.75341797 C-5 29 -5 29 -7 31 C-7 23.41 -7 15.82 -7 8 C-6.34 8 -5.68 8 -5 8 C-4.9175 7.236875 -4.835 6.47375 -4.75 5.6875 C-3.85384206 2.47626739 -2.78388975 1.70625501 0 0 Z " fill="#1B1226" transform="translate(7,25)"/>
<path d="M0 0 C10.44664676 0.88216128 10.44664676 0.88216128 15 3 C16.32 4.65 17.64 6.3 19 8 C14.71 7.67 10.42 7.34 6 7 C6 6.34 6 5.68 6 5 C5.24074219 4.87882812 4.48148438 4.75765625 3.69921875 4.6328125 C2.70535156 4.46523438 1.71148437 4.29765625 0.6875 4.125 C-0.79169922 3.88136719 -0.79169922 3.88136719 -2.30078125 3.6328125 C-5 3 -5 3 -8 1 C-5.36 1.33 -2.72 1.66 0 2 C0 1.34 0 0.68 0 0 Z " fill="#D6CED1" transform="translate(68,34)"/>
<path d="M0 0 C2.59007676 0.99618337 3.84433414 1.67352746 5.4375 3.9375 C5.4375 5.2575 5.4375 6.5775 5.4375 7.9375 C-0.9975 8.4325 -0.9975 8.4325 -7.5625 8.9375 C-6.57849402 4.01747009 -5.7240196 -0.13961023 0 0 Z " fill="#F5E9EC" transform="translate(14.5625,63.0625)"/>
<path d="M0 0 C0.66 0.33 1.32 0.66 2 1 C0.56458334 2.29398147 -0.87341352 3.58510111 -2.3125 4.875 C-3.11300781 5.59429687 -3.91351563 6.31359375 -4.73828125 7.0546875 C-7 9 -7 9 -10 11 C-12.6875 10.625 -12.6875 10.625 -15 10 C-15.33 8.35 -15.66 6.7 -16 5 C-14.02 3.68 -12.04 2.36 -10 1 C-10.33 2.65 -10.66 4.3 -11 6 C-6.90694544 4.34703566 -3.41016497 2.86453858 0 0 Z " fill="#D0C9CC" transform="translate(108,92)"/>
<path d="M0 0 C4.67216699 0.97964792 9.16591573 2.0328098 13.6875 3.5625 C19.99411797 5.53518619 26.43504021 5.72567171 33 6 C33 6.33 33 6.66 33 7 C29.7 7 26.4 7 23 7 C23 7.66 23 8.32 23 9 C17.62259304 8.43432472 13.11266608 7.11769442 8.125 5.0625 C7.44953125 4.79759766 6.7740625 4.53269531 6.078125 4.25976562 C1.12853505 2.25707009 1.12853505 2.25707009 0 0 Z " fill="#291F33" transform="translate(39,113)"/>
<path d="M0 0 C3.83331699 -0.02929981 7.66660471 -0.04689897 11.5 -0.0625 C12.57765625 -0.07087891 13.6553125 -0.07925781 14.765625 -0.08789062 C20.61328382 -0.10571885 26.21863671 0.10894037 32 1 C32 1.99 32 2.98 32 4 C27.97887629 3.69116691 23.95816244 3.37727701 19.9375 3.0625 C18.80376953 2.97548828 17.67003906 2.88847656 16.50195312 2.79882812 C10.96642862 2.36308713 5.48302256 1.88333165 0 1 C0 0.67 0 0.34 0 0 Z " fill="#2F2B35" transform="translate(21,33)"/>
<path d="M0 0 C5.95672771 -0.49639398 9.97822235 0.73584453 15 4 C16.734375 5.51171875 16.734375 5.51171875 18 7 C18 7.66 18 8.32 18 9 C13 7 13 7 10.6875 5.9375 C7.12624377 4.69520131 3.75117948 4.38147588 0 4 C0 2.68 0 1.36 0 0 Z " fill="#2A2033" transform="translate(0,0)"/>
<path d="M0 0 C1.74965358 -0.05429959 3.49979787 -0.09292823 5.25 -0.125 C6.22453125 -0.14820313 7.1990625 -0.17140625 8.203125 -0.1953125 C11.0196498 0.00137219 12.60949036 0.55431084 15 2 C15 4.31 15 6.62 15 9 C14.67 7.68 14.34 6.36 14 5 C9.05 4.67 4.1 4.34 -1 4 C-0.67 2.68 -0.34 1.36 0 0 Z " fill="#807787" transform="translate(73,49)"/>
<path d="M0 0 C6.45512034 -0.56131481 11.15439723 1.36536213 17 4 C13.71480525 5.09506492 11.26336585 5.09960608 7.8125 5.0625 C6.18248047 5.04896484 6.18248047 5.04896484 4.51953125 5.03515625 C3.68808594 5.02355469 2.85664062 5.01195312 2 5 C1.67 6.98 1.34 8.96 1 11 C0.67 11 0.34 11 0 11 C0 7.37 0 3.74 0 0 Z " fill="#867D8C" transform="translate(30,49)"/>
<path d="M0 0 C10.15317287 1.17286652 10.15317287 1.17286652 13.6875 4.625 C14.120625 5.40875 14.55375 6.1925 15 7 C11.7 7 8.4 7 5 7 C4.67 6.01 4.34 5.02 4 4 C3.34 4 2.68 4 2 4 C1.34 2.68 0.68 1.36 0 0 Z " fill="#7B40B0" transform="translate(56,121)"/>
<path d="M0 0 C5.07401711 1.95955512 9.9383979 4.31636068 14.84375 6.66015625 C17.61827606 7.8379563 20.03409611 8.55179438 23 9 C23 9.99 23 10.98 23 12 C17.69890653 11.45672023 13.84024434 9.64106713 9.25 7.125 C8.57839844 6.77308594 7.90679687 6.42117187 7.21484375 6.05859375 C3.93978298 4.29308003 2.09693991 3.14540986 0 0 Z " fill="#281D32" transform="translate(50,20)"/>
<path d="M0 0 C1.2964351 0.76278623 2.58699148 1.53556959 3.875 2.3125 C4.59429688 2.74175781 5.31359375 3.17101562 6.0546875 3.61328125 C8 5 8 5 10 8 C6.7 8 3.4 8 0 8 C0 5.36 0 2.72 0 0 Z " fill="#1E112B" transform="translate(0,120)"/>
<path d="M0 0 C4.86896303 0.59619955 9.32790951 1.56976822 14 3 C13.01 3.495 13.01 3.495 12 4 C12 4.66 12 5.32 12 6 C7.71 5.01 3.42 4.02 -1 3 C-0.67 2.01 -0.34 1.02 0 0 Z " fill="#25222D" transform="translate(56,35)"/>
<path d="M0 0 C0.33 0.66 0.66 1.32 1 2 C0.67 2.66 0.34 3.32 0 4 C0.99 4.33 1.98 4.66 3 5 C3 5.33 3 5.66 3 6 C1.35 6.33 -0.3 6.66 -2 7 C-2.33 9.31 -2.66 11.62 -3 14 C-3.66 12.68 -4.32 11.36 -5 10 C-5.66 10.66 -6.32 11.32 -7 12 C-7 10.68 -7 9.36 -7 8 C-6.34 8 -5.68 8 -5 8 C-4.9175 7.236875 -4.835 6.47375 -4.75 5.6875 C-3.85384206 2.47626739 -2.78388975 1.70625501 0 0 Z " fill="#372E41" transform="translate(7,25)"/>
<path d="M0 0 C1 3 1 3 0.109375 5.375 C-0.33921875 6.24125 -0.7878125 7.1075 -1.25 8 C-1.68828125 8.86625 -2.1265625 9.7325 -2.578125 10.625 C-3.87579238 12.79253233 -5.12777789 14.32601317 -7 16 C-6.27991594 11.39146203 -4.68704061 7.32762591 -3 3 C-3.66 2.67 -4.32 2.34 -5 2 C-3.35 1.34 -1.7 0.68 0 0 Z " fill="#B9B1B8" transform="translate(117,76)"/>
<path d="M0 0 C3.78786597 0.5260925 6.17152224 1.38103911 9 4 C9 4.66 9 5.32 9 6 C2.375 5.25 2.375 5.25 -1 3 C-0.67 2.01 -0.34 1.02 0 0 Z " fill="#A99EB2" transform="translate(93,23)"/>
<path d="M0 0 C2.64 0.66 5.28 1.32 8 2 C7.01 2.33 6.02 2.66 5 3 C5 3.66 5 4.32 5 5 C0.71 4.01 -3.58 3.02 -8 2 C-4.29847322 1.07461831 -3.36541838 0.91825838 0 2 C0 1.34 0 0.68 0 0 Z " fill="#BDB6BA" transform="translate(68,34)"/>
<path d="M0 0 C0.66 0 1.32 0 2 0 C1.42424336 3.35250701 0.40693737 4.93818629 -2.0625 7.25 C-2.88427734 8.03117187 -2.88427734 8.03117187 -3.72265625 8.828125 C-4.14417969 9.21484375 -4.56570312 9.6015625 -5 10 C-4.67 10.66 -4.34 11.32 -4 12 C-5.32 12.33 -6.64 12.66 -8 13 C-7.43337571 9.37679679 -6.10912999 7.82534347 -3.4375 5.375 C-2.25665005 4.28681232 -1.10189664 3.16806798 0 2 C0 1.34 0 0.68 0 0 Z " fill="#261D2F" transform="translate(21,39)"/>
<path d="M0 0 C1.48117801 0.28127421 2.95993249 0.57533732 4.4375 0.875 C5.67306641 1.11863281 5.67306641 1.11863281 6.93359375 1.3671875 C7.61550781 1.57601562 8.29742187 1.78484375 9 2 C9.33 2.66 9.66 3.32 10 4 C6.7 3.67 3.4 3.34 0 3 C0 2.01 0 1.02 0 0 Z " fill="#0D071A" transform="translate(104,42)"/>
<path d="M0 0 C2.31 0.33 4.62 0.66 7 1 C7 1.66 7 2.32 7 3 C7.66 3.33 8.32 3.66 9 4 C6.69 4 4.38 4 2 4 C1.34 2.68 0.68 1.36 0 0 Z " fill="#A461E2" transform="translate(59,124)"/>
<path d="M0 0 C4.95 0 9.9 0 15 0 C15 0.33 15 0.66 15 1 C11.7 1 8.4 1 5 1 C5 1.66 5 2.32 5 3 C3.35 2.67 1.7 2.34 0 2 C0 1.34 0 0.68 0 0 Z " fill="#32253E" transform="translate(57,119)"/>
<path d="M0 0 C1.125 1.625 1.125 1.625 2 4 C1.125 7.25 1.125 7.25 0 10 C-0.66 9.67 -1.32 9.34 -2 9 C-1.125 1.125 -1.125 1.125 0 0 Z " fill="#231F2A" transform="translate(71,47)"/>
<path d="M0 0 C0 0.66 0 1.32 0 2 C0.99 2.33 1.98 2.66 3 3 C1.741875 2.87625 0.48375 2.7525 -0.8125 2.625 C-1.87404297 2.52058594 -1.87404297 2.52058594 -2.95703125 2.4140625 C-5 2 -5 2 -8 0 C-5.13822943 -1.43088528 -3.06624227 -0.59991697 0 0 Z " fill="#958C9A" transform="translate(34,69)"/>
<path d="M0 0 C2 1 2 1 3 3 C-0.06246747 4.78409802 -2.22079273 5.22880021 -5.75 5.125 C-6.54921875 5.10695313 -7.3484375 5.08890625 -8.171875 5.0703125 C-8.77515625 5.04710938 -9.3784375 5.02390625 -10 5 C-10 4.67 -10 4.34 -10 4 C-7.36 4 -4.72 4 -2 4 C-1.34 2.68 -0.68 1.36 0 0 Z " fill="#2B2234" transform="translate(112,75)"/>
<path d="M0 0 C4.875 2.75 4.875 2.75 6 5 C4.02 5 2.04 5 0 5 C0 3.35 0 1.7 0 0 Z " fill="#796988" transform="translate(0,123)"/>
<path d="M0 0 C2.97 0.33 5.94 0.66 9 1 C6.8614515 3.1385485 5.86724686 3.42655063 3 4 C2.01 2.68 1.02 1.36 0 0 Z " fill="#6E6575" transform="translate(48,40)"/>
<path d="M0 0 C0.99 0 1.98 0 3 0 C3 1.32 3 2.64 3 4 C1.35 4.33 -0.3 4.66 -2 5 C-1.34 3.35 -0.68 1.7 0 0 Z " fill="#ABA0B3" transform="translate(113,0)"/>
</svg>
